<svg xmlns="http://www.w3.org/2000/svg" viewBox="0 0 512 512" width="100%" height="100%">
  <!-- Background Circle matching the wheel center, maximized -->
  <circle cx="256" cy="256" r="248" fill="#111827" stroke="#fbbf24" stroke-width="16" />
  
  <!-- Icon Path scaled up to fill the circle area -->
  <g transform="translate(256, 256) scale(0.43, -0.43) translate(-466, -281)">
    <path d="M434 749c-117-2-200-71-190-179-342-340-83-759 161-589 458-48 625 270 496 422-133 250-325 348-467 346z m69-106c117 1 270-68 380-221-64 56-178 80-343 34 456 10 310-472-129-470 46 33 92 89 132 169-275-308-516 96-297 398 12-70 61-154 163-247-148 215-58 336 94 337z m40-218c-56 0-106-38-118-95-14-64 27-128 91-142 65-13 128 27 142 92 14 64-27 128-91 142-8 2-16 2-24 3z" fill="#fbbf24" />
  </g>
</svg>